PathFileType	4	(X/Y/Z)	./resultDataOpenSim/trcMotMarkerGrf/sub10/qtm-03-07.trc
DataRate	CameraRate	NumFrames	NumMarkers	Units	OrigDataRate	OrigDataStartFrame	OrigNumFrames
250.000000	250.000000	8	24	m	250.000000	130	517
Frame#	Time	L.Toe.Tip			R.Toe.Tip			L.Ankle.Lat			R.Ankle.Lat			L.Ankle.Med			R.Ankle.Med			L.Heel			R.Heel			L.Knee.Lat			R.Knee.Lat			L.Knee.Med			R.Knee.Med			L.Thigh.Upper			R.Thigh.Upper			L.ASIS			R.ASIS			V.Sacral			L.Acromium			R.Acromium			C7			L.Elbow			R.Elbow			L.Wrist.Lat			R.Wrist.Lat
		X1	Y1	Z1	X2	Y2	Z2	X3	Y3	Z3	X4	Y4	Z4	X5	Y5	Z5	X6	Y6	Z6	X7	Y7	Z7	X8	Y8	Z8	X9	Y9	Z9	X10	Y10	Z10	X11	Y11	Z11	X12	Y12	Z12	X13	Y13	Z13	X14	Y14	Z14	X15	Y15	Z15	X16	Y16	Z16	X17	Y17	Z17	X18	Y18	Z18	X19	Y19	Z19	X20	Y20	Z20	X21	Y21	Z21	X22	Y22	Z22	X23	Y23	Z23	X24	Y24	Z24

130	0.516	-0.57470834	0.067017546	-0.1401986	-0.73191806	0.039599644	0.059364879	-0.69734565	0.12040173	-0.13684187	-0.87521192	0.054457722	0.08428058	-0.67171669	0.12874069	-0.055819199	-0.85058781	0.080396062	0.0015838642	-0.75913957	0.096885788	-0.080940062	-0.92220143	0.029789294	0.034391257	-0.56082472	0.48339676	-0.14520595	-0.77055854	0.44665618	0.13054692	-0.54025204	0.45333217	-0.028038386	-0.76317392	0.44843362	-0.00074360383	-0.70571602	0.83352748	-0.19598949	-0.73811217	0.8601544	0.18516898	-0.66128776	0.94627903	-0.12783056	-0.66110449	0.94969813	0.11581633	-0.86165777	0.96248297	-0.0095101339	-0.71953242	1.4237874	-0.15450524	-0.73148444	1.4169954	0.1658527	-0.80298077	1.4465687	-0.00011823308	-0.838515	1.1098413	-0.21822142	-0.78403672	1.0646536	0.2142369	-0.7354813	0.88537194	-0.24173247	-0.62684426	0.90129606	0.30987948
131	0.52	-0.55803005	0.066699613	-0.13883145	-0.73194768	0.039622144	0.059456162	-0.68187662	0.11706442	-0.13580695	-0.87513027	0.054483817	0.084141901	-0.65740988	0.12612892	-0.055097024	-0.85052246	0.080394183	0.0015193626	-0.74355298	0.092121343	-0.080384849	-0.92221385	0.029924126	0.034099779	-0.55406537	0.4834987	-0.14498699	-0.76693252	0.44601489	0.12985776	-0.5328467	0.45384061	-0.027633485	-0.76106735	0.44794354	-0.00074317216	-0.69964934	0.83366302	-0.19586194	-0.73457418	0.85950259	0.18530369	-0.65566026	0.94606325	-0.12727669	-0.65721918	0.9488856	0.11643687	-0.85719363	0.96204597	-0.0096450363	-0.71515712	1.4233062	-0.15424323	-0.72663429	1.4166394	0.16621914	-0.79816312	1.4460512	0.0003197066	-0.83410403	1.1094266	-0.21779285	-0.77705922	1.0638232	0.21487769	-0.73163401	0.88481072	-0.2423944	-0.61723598	0.90221419	0.30907854
132	0.524	-0.54127681	0.066477373	-0.13735465	-0.73191319	0.039659548	0.059535399	-0.66632818	0.11377119	-0.13476933	-0.87511801	0.054541109	0.084055545	-0.64305984	0.12367932	-0.054454795	-0.8504013	0.080388457	0.0014751962	-0.72758327	0.087486479	-0.079646827	-0.92219982	0.0300192	0.033975372	-0.54738223	0.48343658	-0.14480061	-0.76491387	0.44550665	0.12948026	-0.5256489	0.45425999	-0.027298963	-0.75896324	0.44743228	-0.00077643188	-0.69361889	0.83371904	-0.1957161	-0.73103979	0.85881832	0.18543294	-0.65019069	0.94577369	-0.12676347	-0.65349287	0.94800899	0.11705382	-0.85273805	0.96154072	-0.0097415981	-0.71073017	1.4227494	-0.15398732	-0.72178567	1.4162127	0.16656777	-0.79334807	1.4454814	0.00070030444	-0.82947845	1.1089369	-0.21717562	-0.7701699	1.0629669	0.21557481	-0.72778671	0.8841787	-0.24306178	-0.60770273	0.9031095	0.30825119
133	0.528	-0.52449603	0.066342887	-0.13577271	-0.73186683	0.039689966	0.059591796	-0.65075157	0.11051633	-0.13375024	-0.87513522	0.05462379	0.084004859	-0.62813224	0.12145397	-0.053691816	-0.85029625	0.080352998	0.0014070537	-0.71119671	0.08294322	-0.078721276	-0.92217374	0.030097544	0.03392183	-0.54076985	0.48322744	-0.14464147	-0.76416834	0.44511821	0.1293976	-0.51865689	0.45457748	-0.027031565	-0.75682519	0.44691182	-0.00083150165	-0.68763395	0.83369968	-0.19555769	-0.72750427	0.85810425	0.18555952	-0.64483804	0.94540711	-0.12628657	-0.64975607	0.94709399	0.11766109	-0.84827216	0.96096633	-0.0098318803	-0.7062277	1.4221184	-0.15372681	-0.71692549	1.4157198	0.16689264	-0.7885268	1.4448613	0.0010336678	-0.82474839	1.1083613	-0.21647522	-0.76331796	1.0621297	0.21637258	-0.72394434	0.8834804	-0.24372257	-0.59825853	0.9039778	0.30739796
134	0.532	-0.50772618	0.06627175	-0.13411125	-0.73183835	0.039700857	0.059622645	-0.63513402	0.10732208	-0.13275562	-0.8751349	0.054716963	0.083963329	-0.61254094	0.11942731	-0.052741178	-0.8501963	0.080272295	0.0013209807	-0.69467408	0.078523619	-0.077767072	-0.92214806	0.030182873	0.03384164	-0.53420887	0.48288165	-0.14451314	-0.76348818	0.44471223	0.12930393	-0.51180284	0.45479729	-0.026794487	-0.75462562	0.44638655	-0.00090950995	-0.68167828	0.83360895	-0.19539581	-0.72396097	0.85736155	0.18568132	-0.63952044	0.94497312	-0.12583287	-0.64574715	0.94619341	0.11824785	-0.84377625	0.96032045	-0.0099431406	-0.70165692	1.4214208	-0.15346994	-0.71203999	1.4151642	0.16720077	-0.7836936	1.444192	0.0013345613	-0.8199981	1.1077064	-0.2157733	-0.75647986	1.0613533	0.21733143	-0.72011675	0.88272132	-0.24437538	-0.58885203	0.90481349	0.30650378
135	0.536	-0.49099785	0.066234808	-0.1324003	-0.7318161	0.039699454	0.059641612	-0.61946884	0.10421071	-0.1317927	-0.87509842	0.054809337	0.083914236	-0.59675072	0.11747415	-0.051697274	-0.85004655	0.080161747	0.0012520844	-0.67826233	0.074261092	-0.076907067	-0.92212988	0.030301757	0.033622119	-0.52768672	0.48239442	-0.14442067	-0.76243342	0.44416778	0.12903664	-0.5050481	0.45492293	-0.026570291	-0.75232893	0.44585529	-0.0010195091	-0.67568306	0.83344822	-0.19523158	-0.72040691	0.85658859	0.1857913	-0.63416814	0.94448039	-0.12538697	-0.64139862	0.94532967	0.11881143	-0.83922855	0.95959947	-0.010100611	-0.69702986	1.4206588	-0.15322945	-0.70711011	1.4145502	0.16749831	-0.77884829	1.4434736	0.0016114114	-0.81521531	1.1069829	-0.2150566	-0.74964149	1.0606114	0.21840458	-0.71631421	0.88190339	-0.24503625	-0.57943138	0.90561747	0.30555385
136	0.54	-0.47432499	0.066210585	-0.13065374	-0.7317646	0.039709955	0.059671139	-0.60376722	0.10119483	-0.13087197	-0.87502542	0.054894723	0.083850225	-0.58115229	0.11552422	-0.05061708	-0.84982204	0.080062157	0.0012143157	-0.66195006	0.070161631	-0.076110543	-0.92212132	0.030475376	0.033170879	-0.52120705	0.48176291	-0.14437229	-0.76136514	0.44342354	0.12860829	-0.49841339	0.45493984	-0.026375365	-0.74989793	0.4453209	-0.0011730794	-0.66955963	0.83321723	-0.19505638	-0.71683983	0.8557828	0.18588469	-0.62868595	0.94392975	-0.12492461	-0.63689386	0.94447321	0.11935844	-0.8346049	0.95879878	-0.010330856	-0.6923435	1.4198235	-0.15300656	-0.70212261	1.4138809	0.16778284	-0.77399403	1.4427068	0.0018662908	-0.81043697	1.1062001	-0.21436084	-0.74278055	1.0598059	0.21942391	-0.71254657	0.88102779	-0.24572679	-0.56999309	0.90639077	0.30454597
137	0.544	-0.45770039	0.066189624	-0.12886841	-0.73166609	0.039759377	0.059719696	-0.58799976	0.098296038	-0.1299942	-0.87491942	0.054972675	0.083768729	-0.56580298	0.11365282	-0.04946573	-0.84955981	0.080003118	0.0011736759	-0.6455645	0.066233832	-0.075270241	-0.92211923	0.030691197	0.032538597	-0.51477025	0.48099921	-0.14438022	-0.76045994	0.44248157	0.12805133	-0.49192872	0.45482638	-0.026230266	-0.74733976	0.44479168	-0.0013669603	-0.66329863	0.83291514	-0.19486919	-0.71325523	0.85494606	0.18596185	-0.62299019	0.94331808	-0.12442642	-0.63243456	0.94358269	0.1198918	-0.82987932	0.95791322	-0.010662182	-0.68758533	1.4189078	-0.15279475	-0.69708107	1.413153	0.16804596	-0.76913235	1.4418933	0.0020996772	-0.80579162	1.1053722	-0.21382142	-0.73587948	1.058857	0.22025864	-0.70881975	0.8800939	-0.2464546	-0.5605627	0.90712902	0.30348835
